<svg width="144" height="144" xmlns="http://www.w3.org/2000/svg" xmlns:xlink="http://www.w3.org/1999/xlink" xml:space="preserve" overflow="hidden"><g transform="translate(-630 -207)"><path d="M726 252C726 265.255 715.255 276 702 276 688.745 276 678 265.255 678 252 678 238.745 688.745 228 702 228 715.255 228 726 238.745 726 252Z" fill="#FFFFFF"/><path d="M750 330 750 306C750 302.4 748.2 298.8 745.2 296.4 738.6 291 730.2 287.4 721.8 285 715.8 283.2 709.2 282 702 282 695.4 282 688.8 283.2 682.2 285 673.8 287.4 665.4 291.6 658.8 296.4 655.8 298.8 654 302.4 654 306L654 330 750 330Z" fill="#FFFFFF"/></g></svg>